#!OML:ASF E:\emotionWalksFemale\Project 1\Capture day 1\Session 1\Female1.ASF
:FULLY-SPECIFIED
:DEGREES
1937
root -7.218 15.5284 7.40318 355.823 2.16116 -3.69475
lowerback 4.69474 1.64037 0.959246
upperback -6.98392 2.20984 -1.11043
thorax -9.9657 0.954098 -2.01238
lowerneck -13.0875 0.999315 0.532963
upperneck 17.9645 1.5086 -1.13856
head 7.7092 0.652238 -0.304795
rclavicle 8.15017e-015 8.74653e-015
rhumerus 25.6839 16.1597 -39.4927
rradius 28.3644
rwrist 19.8867
rhand -5.09128 -42.7163
rfingers 7.12502
rthumb -159.294 -251.632
lclavicle 8.15017e-015 8.74653e-015
lhumerus 21.5966 -13.8928 49.4173
lradius 29.269
lwrist -29.0293
lhand -4.92137 -40.4404
lfingers 7.12502
lthumb 20.869 -11.5428
rfemur -4.8097 19.1848 23.5087
rtibia 13.9408
rfoot -17.5812 -27.8577
rtoes 14.5539
lfemur 5.8136 -7.24908 -13.8758
ltibia 47.2363
lfoot -4.99706 -6.93815
ltoes -8.95934
1938
root -7.26373 15.5343 7.48443 355.624 2.69939 -3.83841
lowerback 5.10093 1.60713 1.3239
upperback -7.02683 2.22265 -0.922343
thorax -10.2516 0.936241 -2.0346
lowerneck -13.0184 0.91228 0.576131
upperneck 18.1074 1.36824 -1.06999
head 7.74251 0.594975 -0.304181
rclavicle -1.09332e-014 2.38542e-015
rhumerus 25.4897 15.9981 -39.7581
rradius 28.2891
rwrist 20.0932
rhand -4.9207 -42.42
rfingers 7.12502
rthumb -159.13 -251.317
lclavicle -1.09332e-014 2.38542e-015
lhumerus 21.6967 -14.007 49.4307
lradius 29.2114
lwrist -29.1768
lhand -4.89749 -40.6746
lfingers 7.12502
lthumb 20.8919 -11.7796
rfemur -4.20477 19.116 24.0298
rtibia 14.0991
rfoot -18.0154 -28.2399
rtoes 16.422
lfemur 4.55813 -6.56217 -13.2967
ltibia 49.3918
lfoot -5.61054 -6.34799
ltoes -8.21963
1939
root -7.30889 15.5435 7.57156 355.44 3.26261 -3.85605
lowerback 4.9608 1.54573 1.39695
upperback -6.74775 2.17076 -0.614288
thorax -9.86778 0.927501 -1.7271
lowerneck -13.1185 0.8153 0.457876
upperneck 17.9853 1.27686 -1.16671
head 7.71918 0.533899 -0.325674
rclavicle -1.25234e-014 -1.19271e-014
rhumerus 25.8795 15.8037 -39.5592
rradius 28.2253
rwrist 20.0992
rhand -4.69472 -42.2079
rfingers 7.12502
rthumb -158.913 -251.081
lclavicle -1.25234e-014 -1.19271e-014
lhumerus 22.084 -13.5441 49.6601
lradius 28.9719
lwrist -29.3888
lhand -4.85889 -40.9028
lfingers 7.12502
lthumb 20.929 -12.0118
rfemur -3.53344 19.3113 24.4305
rtibia 14.1504
rfoot -19.0466 -28.7195
rtoes 17.891
lfemur 3.31845 -5.84912 -12.8926
ltibia 51.3178
lfoot -6.50058 -5.70547
ltoes -11.4281
1940
root -7.35103 15.5578 7.65837 355.33 3.89933 -3.73944
lowerback 4.72448 1.45716 1.39507
upperback -6.45311 2.06538 -0.376297
thorax -9.4131 0.89511 -1.44436
lowerneck -13.5611 0.803658 0.257338
upperneck 18.0125 1.28427 -1.06788
head 7.8053 0.531345 -0.257453
rclavicle 2.98177e-015 -3.02153e-014
rhumerus 26.3266 15.381 -39.5944
rradius 28.0458
rwrist 20.4371
rhand -4.33958 -41.9919
rfingers 7.12502
rthumb -158.572 -250.827
lclavicle 2.98177e-015 -3.02153e-014
lhumerus 22.5658 -12.5204 50.1711
lradius 28.5883
lwrist -30.225
lhand -4.93466 -40.8681
lfingers 7.12502
lthumb 20.8562 -11.9692
rfemur -2.88445 19.669 24.6885
rtibia 14.1247
rfoot -19.913 -29.4326
rtoes 18.561
lfemur 2.10034 -5.19393 -12.6941
ltibia 52.948
lfoot -7.33942 -5.27814
ltoes -14.2887
1941
root -7.39016 15.5686 7.74111 355.217 4.58169 -3.65933
lowerback 4.57697 1.41429 1.55807
upperback -6.2385 2.02945 -0.236876
thorax -9.09028 0.877903 -1.37398
lowerneck -13.9632 0.813539 -0.147458
upperneck 18.1416 1.30759 -0.6562
head 7.91441 0.553312 -0.0500456
rclavicle 1.51076e-014 2.54444e-014
rhumerus 26.3741 14.8714 -39.7645
rradius 27.9272
rwrist 20.8461
rhand -3.96381 -41.9072
rfingers 7.12502
rthumb -158.211 -250.701
lclavicle 1.51076e-014 2.54444e-014
lhumerus 23.3894 -8.8273 52.8677
lradius 27.3288
lwrist -34.6295
lhand -4.86236 -41.6809
lfingers 7.12502
lthumb 20.9257 -12.7896
rfemur -2.25481 20.1566 24.9995
rtibia 14.1815
rfoot -21.0494 -30.2714
rtoes 19.4485
lfemur 0.98232 -4.61959 -12.4939
ltibia 54.2708
lfoot -8.00446 -5.30656
ltoes -13.2841
1942
root -7.42509 15.5785 7.82855 355.107 5.21138 -3.58642
lowerback 4.47429 1.41966 1.83465
upperback -6.14102 2.06529 -0.150805
thorax -8.91577 0.883585 -1.43666
lowerneck -13.9276 0.749316 -0.486081
upperneck 18.1513 1.24639 -0.41247
head 7.90724 0.525352 0.0799006
rclavicle 7.95139e-016 -5.96354e-015
rhumerus 26.1379 14.6519 -39.8391
rradius 27.9379
rwrist 21.0856
rhand -3.86963 -41.565
rfingers 7.12502
rthumb -158.121 -250.348
lclavicle 7.95139e-016 -5.96354e-015
lhumerus 22.7253 -14.8364 48.0836
lradius 29.9147
lwrist -27.2163
lhand -5.08358 -39.6817
lfingers 7.12502
lthumb 20.7131 -10.767
rfemur -1.68759 20.5238 25.3028
rtibia 14.3607
rfoot -22.3157 -30.8846
rtoes 24.0521
lfemur -0.0885463 -3.96959 -12.3258
ltibia 55.2996
lfoot -8.77417 -5.38064
ltoes -12.0788
1943
root -7.45979 15.5897 7.91871 354.958 5.84031 -3.3261
lowerback 4.51385 1.39647 1.8391
upperback -6.1206 2.04087 -0.0848196
thorax -8.92002 0.874158 -1.36739
lowerneck -13.6252 0.686113 -0.38674
upperneck 18.1072 1.18802 -0.671776
head 7.84111 0.480359 -0.0298446
rclavicle 9.44227e-015 6.36111e-015
rhumerus 25.9246 14.6988 -39.8882
rradius 27.9439
rwrist 21.358
rhand -3.71271 -41.0415
rfingers 7.12502
rthumb -157.97 -249.807
lclavicle 9.44227e-015 6.36111e-015
lhumerus 23.9707 -8.45177 53.29
lradius 26.589
lwrist -35.0817
lhand -5.04346 -42.2233
lfingers 7.12502
lthumb 20.7517 -13.3128
rfemur -1.03114 20.7711 25.4343
rtibia 14.5103
rfoot -23.5952 -31.2925
rtoes 28.1095
lfemur -1.08311 -3.26338 -12.4112
ltibia 56.0874
lfoot -9.65299 -5.12586
ltoes -13.3925
1944
root -7.49268 15.5967 8.00421 354.812 6.4884 -2.98888
lowerback 4.62947 1.39135 1.71997
upperback -6.15314 2.0297 -0.0515252
thorax -9.02953 0.876357 -1.26853
lowerneck -13.3177 0.61747 -0.190227
upperneck 18.1812 1.09511 -0.892428
head 7.81293 0.429277 -0.146006
rclavicle 2.48481e-014 -8.74653e-015
rhumerus 25.6 14.6553 -40.1574
rradius 27.8005
rwrist 21.4634
rhand -4.22935 -41.0504
rfingers 7.12502
rthumb -158.466 -249.873
lclavicle 2.48481e-014 -8.74653e-015
lhumerus 23.5522 -11.2728 51.2137
lradius 27.7367
lwrist -31.7312
lhand -5.03542 -41.4323
lfingers 7.12502
lthumb 20.7594 -12.5227
rfemur -0.367012 20.8012 25.4686
rtibia 14.6237
rfoot -24.8058 -31.5314
rtoes 30.454
lfemur -1.99264 -2.63311 -12.6498
ltibia 56.6957
lfoot -10.6363 -4.72913
ltoes -14.4704
1945
root -7.52063 15.5973 8.08632 354.745 7.0827 -2.78262
lowerback 4.67908 1.41035 1.89404
upperback -6.19212 2.07476 -0.0351058
thorax -9.09545 0.886306 -1.35633
lowerneck -13.1744 0.511733 -0.139158
upperneck 18.3258 0.964316 -1.01018
head 7.83558 0.359306 -0.207408
rclavicle -3.85642e-014 -3.53837e-014
rhumerus 25.2838 14.8206 -40.3154
rradius 27.6178
rwrist 20.7376
rhand -5.86929 -41.7567
rfingers 7.12502
rthumb -160.042 -250.752
lclavicle -3.85642e-014 -3.53837e-014
lhumerus 23.5308 -12.1457 50.6731
lradius 28.0737
lwrist -30.7735
lhand -4.84648 -41.1328
lfingers 7.12502
lthumb 20.9409 -12.2432
rfemur 0.114442 20.7636 25.5745
rtibia 14.8356
rfoot -26.0513 -31.562
rtoes 25.4394
lfemur -2.96122 -1.98295 -12.7846
ltibia 57.1681
lfoot -11.6874 -4.36402
ltoes -14.4224
1946
root -7.54966 15.5979 8.1696 354.711 7.61944 -2.70095
lowerback 4.58073 1.40422 2.14588
upperback -6.1641 2.09482 0.0645608
thorax -9.00159 0.88503 -1.3905
lowerneck -12.9122 0.42832 0.0125015
upperneck 18.1129 0.887213 -1.37946
head 7.72047 0.299554 -0.362769
rclavicle 2.52457e-014 7.95139e-015
rhumerus 25.1135 15.288 -40.0923
rradius 27.6621
rwrist 19.7113
rhand -7.17905 -42.2091
rfingers 7.12502
rthumb -161.301 -251.33
lclavicle 2.52457e-014 7.95139e-015
lhumerus 23.6187 -12.0033 50.827
lradius 28.0083
lwrist -30.8373
lhand -4.71394 -41.1239
lfingers 7.12502
lthumb 21.0682 -12.2484
rfemur 0.52738 21.0371 25.8437
rtibia 15.0832
rfoot -27.4549 -31.7264
rtoes 26.9949
lfemur -4.00264 -1.22574 -12.7689
ltibia 57.5083
lfoot -12.7904 -3.93049
ltoes -14.9017
